<!DOCTYPE svg PUBLIC "-//W3C//DTD SVG 20010904//EN" "http://www.w3.org/TR/2001/REC-SVG-20010904/DTD/svg10.dtd">
<svg version="1.0" xmlns="http://www.w3.org/2000/svg" width="1600px" height="1122px" viewBox="0 0 16000 11220" preserveAspectRatio="xMidYMid meet">
<g id="layer101" fill="#ffffff" stroke="none">
 <path d="M4056 11204 c-3 -9 -6 -202 -6 -430 l0 -414 29 0 c16 0 35 -2 43 -5 7 -3 22 8 33 24 l20 29 60 -30 c53 -27 71 -31 150 -32 66 -1 99 4 125 16 125 60 200 226 170 377 -22 111 -67 176 -156 227 -43 24 -60 28 -134 28 -67 1 -97 -4 -142 -22 -31 -13 -62 -21 -67 -17 -7 4 -11 51 -11 120 0 62 -3 120 -6 129 -4 12 -20 16 -54 16 -34 0 -50 -4 -54 -16z m378 -328 c80 -33 120 -102 120 -206 0 -82 -14 -118 -63 -169 -66 -68 -200 -66 -285 3 l-36 28 0 137 0 136 49 34 c74 50 152 63 215 37z"/>
 <path d="M6675 11075 c-4 -40 -4 -100 0 -133 l7 -60 48 -6 c51 -7 57 -11 87 -66 19 -34 43 -180 58 -350 4 -36 10 -72 15 -80 8 -13 48 -15 239 -15 126 0 233 4 238 8 4 5 9 108 11 230 1 122 4 232 7 243 4 17 15 23 55 28 41 5 51 11 55 29 6 28 10 119 7 178 -2 41 -5 48 -32 59 -23 10 -36 10 -59 1 -26 -11 -29 -18 -36 -74 -3 -34 -12 -65 -18 -69 -7 -4 -134 -8 -283 -8 l-271 0 -7 72 c-3 39 -8 73 -9 74 -1 0 -25 4 -54 7 l-51 6 -7 -74z m573 -402 l-3 -198 -117 -3 c-135 -3 -119 -18 -138 128 -15 116 -30 188 -46 233 l-14 37 160 0 160 0 -2 -197z"/>
 <path d="M1525 11093 c-13 -97 -14 -100 -47 -107 -17 -3 -142 -6 -279 -6 -247 0 -248 0 -260 -22 -9 -16 -14 -112 -17 -305 l-5 -283 67 0 66 0 0 198 c0 108 3 221 6 250 l7 52 163 0 164 0 0 -244 c0 -242 0 -245 22 -260 12 -9 34 -16 48 -16 55 0 55 0 60 267 l5 248 53 6 c29 4 56 10 60 14 4 4 8 62 10 131 l4 124 -61 0 -60 0 -6 -47z"/>
 <path d="M2020 10996 c-122 -27 -209 -98 -242 -198 -23 -70 -23 -195 0 -260 33 -94 127 -170 245 -198 48 -11 66 -11 115 0 93 22 163 67 204 131 25 39 42 137 31 179 l-9 35 -231 5 c-128 3 -234 8 -238 12 -3 3 -3 23 1 44 10 54 77 118 145 138 69 21 82 20 169 -9 41 -13 87 -25 102 -25 26 0 27 2 22 33 -3 17 -7 37 -9 44 -9 28 -160 83 -225 82 -14 -1 -50 -7 -80 -13z m235 -401 c-3 -14 -7 -37 -10 -51 -11 -52 -94 -104 -164 -104 -60 0 -120 30 -151 75 -17 24 -30 55 -30 69 0 29 13 31 228 34 l132 2 -5 -25z"/>
 <path d="M6235 10996 c-74 -16 -110 -30 -156 -62 -74 -51 -129 -165 -129 -266 0 -111 65 -230 155 -282 121 -72 239 -73 341 -4 90 60 124 125 124 234 l0 74 -224 0 c-123 0 -231 3 -240 6 -23 9 -20 49 8 93 32 50 67 75 135 95 49 14 60 14 115 0 34 -8 80 -22 103 -31 50 -18 63 -12 63 30 0 41 -6 49 -60 79 -40 23 -62 29 -150 42 -14 3 -52 -1 -85 -8z m216 -393 c18 -18 1 -71 -35 -106 -41 -41 -113 -60 -176 -46 -45 10 -100 38 -100 50 0 4 -6 14 -13 21 -16 17 -37 65 -37 84 0 14 23 15 175 12 114 -2 178 -7 186 -15z"/>
 <path d="M12180 10996 c-73 -20 -117 -45 -158 -90 -127 -138 -121 -352 14 -476 76 -70 115 -84 229 -85 89 0 106 3 155 27 186 91 243 330 119 501 -80 111 -224 160 -359 123z m195 -136 c20 -12 50 -43 67 -68 30 -43 33 -54 33 -122 0 -60 -5 -82 -22 -110 -54 -87 -138 -124 -233 -102 -92 21 -160 111 -160 212 0 86 66 192 129 206 14 3 31 8 36 10 25 10 118 -6 150 -26z"/>
 <path d="M13025 10996 c-123 -24 -197 -71 -237 -151 -40 -78 -43 -90 -42 -179 0 -78 4 -99 27 -144 28 -56 99 -132 123 -132 8 0 14 -4 14 -10 0 -5 8 -10 18 -10 10 0 23 -5 30 -12 8 -8 48 -12 115 -12 92 -1 108 2 164 28 76 36 101 78 70 119 -11 16 -16 16 -77 -9 -58 -23 -75 -26 -154 -22 -57 3 -91 9 -94 16 -2 7 -8 12 -14 12 -14 0 -66 58 -85 94 -10 19 -16 56 -16 97 0 58 4 72 32 112 17 26 42 52 54 59 44 25 113 48 143 48 38 0 117 -26 186 -61 35 -18 41 -11 34 39 -9 65 -58 101 -157 117 -24 3 -51 8 -59 9 -8 2 -42 -2 -75 -8z"/>
 <path d="M2560 10975 c-12 -15 -15 -69 -15 -309 l0 -291 57 -3 57 -3 11 42 c7 24 9 56 6 73 -4 16 -3 51 0 78 l7 48 167 0 167 0 11 -39 c7 -21 12 -74 12 -119 l0 -80 48 -4 c26 -3 53 0 60 5 18 14 17 583 -1 602 -9 9 -29 11 -59 8 l-46 -5 -8 -120 c-5 -100 -9 -120 -25 -128 -21 -12 -329 -14 -330 -2 0 4 -4 60 -8 124 -4 64 -10 120 -13 123 -4 4 -24 9 -45 12 -29 4 -42 1 -53 -12z"/>
 <path d="M5182 10939 c-8 -32 -12 -147 -12 -309 l0 -258 23 -6 c12 -3 39 -6 59 -6 42 0 40 -4 53 161 l6 76 52 7 c66 8 211 8 259 0 l36 -6 4 -110 c3 -119 8 -128 65 -128 67 0 63 -19 63 316 l0 304 -24 0 c-13 0 -37 3 -54 6 -29 6 -31 4 -41 -32 -6 -22 -11 -77 -11 -124 l0 -86 -33 -12 c-37 -13 -317 -17 -318 -4 0 4 -4 58 -8 119 -5 64 -14 119 -21 128 -7 8 -29 15 -50 15 -36 0 -37 -1 -48 -51z"/>
 <path d="M7773 10983 l-121 -4 -7 -104 c-9 -127 -2 -491 9 -502 4 -4 94 -8 199 -8 208 0 224 4 276 59 35 37 41 120 12 179 -26 54 -26 57 2 87 71 79 61 189 -24 253 -32 23 -130 47 -184 45 -22 -1 -95 -4 -162 -5z m224 -109 c31 -6 63 -50 63 -87 0 -12 -11 -35 -25 -50 -25 -26 -28 -27 -140 -27 l-115 0 0 85 0 85 94 0 c51 0 107 -3 123 -6z m-7 -272 c43 -21 58 -58 39 -97 -8 -16 -25 -32 -39 -36 -31 -9 -168 -11 -197 -3 -24 7 -34 51 -25 117 l5 37 91 0 c67 0 100 -5 126 -18z"/>
 <path d="M8363 10979 c-10 -10 -13 -86 -13 -311 l0 -298 23 -4 c12 -3 38 -7 58 -10 l37 -4 6 45 c3 25 6 117 6 204 0 94 4 159 10 159 11 0 62 -51 129 -129 25 -30 70 -80 100 -110 29 -31 75 -81 102 -111 45 -52 51 -55 88 -52 37 4 40 6 50 47 12 48 14 450 3 525 -7 43 -8 45 -51 54 -68 15 -71 6 -71 -210 0 -114 -4 -185 -10 -189 -11 -7 -22 4 -114 106 -27 30 -76 84 -110 120 -33 36 -83 89 -109 117 -27 29 -56 52 -65 52 -9 0 -26 3 -37 6 -11 3 -26 -1 -32 -7z"/>
 <path d="M9543 10983 l-43 -4 0 -77 c0 -42 -5 -94 -11 -115 -8 -31 -13 -36 -28 -28 -18 10 -114 103 -154 150 -45 53 -77 71 -128 71 -45 0 -49 -2 -49 -24 0 -17 20 -46 61 -88 33 -35 90 -96 126 -135 l65 -73 -38 -42 c-21 -24 -67 -73 -103 -109 -81 -81 -111 -116 -111 -128 0 -17 57 -30 94 -21 28 6 60 32 132 104 52 53 99 96 105 96 16 0 28 -41 34 -123 l7 -78 51 3 52 3 7 89 c6 81 15 105 39 106 4 0 49 -43 101 -95 66 -67 104 -97 126 -101 37 -7 102 3 102 16 0 9 -164 184 -235 251 l-30 28 35 38 c19 20 49 51 65 68 17 16 64 68 105 113 71 80 74 85 55 98 -10 8 -37 14 -58 14 -38 0 -47 -7 -154 -116 -139 -141 -143 -141 -143 12 0 93 -2 104 -17 102 -10 -1 -37 -3 -60 -5z"/>
 <path d="M10185 10983 c-16 -3 -33 -10 -37 -16 -4 -7 -8 -143 -8 -304 l0 -291 30 -6 c97 -19 86 -23 93 36 4 29 7 116 7 193 0 77 4 146 9 154 10 16 16 11 151 -138 41 -46 91 -100 110 -121 19 -20 54 -58 78 -84 35 -37 50 -46 77 -46 69 0 65 -19 65 307 0 270 -2 297 -17 309 -24 18 -64 17 -89 0 -17 -13 -19 -31 -24 -199 -3 -102 -8 -188 -12 -192 -7 -8 -52 36 -158 155 -41 46 -90 100 -108 119 -19 20 -52 57 -75 84 -22 26 -46 46 -51 46 -6 -1 -24 -4 -41 -6z"/>
 <path d="M11710 10946 c-18 -40 -31 -83 -60 -191 -24 -92 -70 -202 -70 -168 0 6 -16 45 -35 86 -19 41 -35 77 -35 81 0 3 -13 34 -28 68 -16 35 -37 84 -48 110 -18 46 -21 48 -59 48 -52 0 -60 -6 -86 -65 -12 -28 -29 -68 -39 -90 -10 -22 -34 -79 -55 -127 -20 -48 -42 -92 -49 -97 -13 -11 -44 71 -92 248 -35 129 -36 131 -89 131 l-45 0 0 -37 c1 -21 8 -65 16 -98 8 -33 21 -87 29 -120 13 -58 85 -281 108 -337 10 -24 17 -28 55 -28 43 0 43 0 69 58 13 31 35 80 48 107 12 28 33 75 46 105 12 30 31 70 41 88 10 18 18 39 18 47 0 8 3 15 6 15 7 0 43 -43 44 -52 0 -4 12 -33 26 -65 14 -32 31 -71 39 -88 7 -16 22 -50 33 -75 11 -25 29 -66 40 -91 19 -45 22 -47 65 -50 52 -5 52 -5 82 96 9 33 26 85 36 115 15 46 46 151 89 305 5 17 13 44 18 62 11 35 11 35 -60 48 -36 6 -38 5 -58 -39z"/>
 <path d="M13719 10983 c-25 -6 -29 -46 -29 -284 l0 -219 -101 0 c-85 0 -104 -3 -115 -17 -16 -22 -18 -57 -4 -84 10 -18 24 -19 243 -19 128 0 256 3 285 6 l52 7 0 48 0 48 -112 3 -113 3 -5 243 c-5 226 -6 245 -24 258 -19 14 -44 16 -77 7z"/>
 <path d="M14206 10974 c-3 -9 -6 -148 -6 -310 l0 -294 54 0 53 0 7 61 c3 34 6 128 6 208 l0 146 68 -71 c37 -38 87 -92 111 -120 191 -215 212 -234 251 -234 38 0 38 1 49 50 12 55 14 432 3 515 -7 49 -7 49 -51 58 -33 7 -46 5 -52 -5 -5 -7 -9 -83 -9 -168 0 -157 -7 -230 -20 -230 -10 0 -100 87 -129 125 -12 17 -53 62 -89 101 -37 38 -89 96 -116 127 -44 50 -54 57 -87 57 -24 0 -39 -5 -43 -16z"/>
 <path d="M3541 10933 c-6 -29 -10 -130 -8 -250 2 -235 16 -213 -129 -213 l-91 0 -6 -47 c-3 -27 -3 -50 0 -53 2 -2 131 -5 287 -5 303 0 316 2 316 50 0 42 -29 55 -127 55 -130 0 -123 -15 -123 273 l0 237 -54 0 -54 0 -11 -47z"/>
 <path d="M1030 9289 c-74 -4 -227 -13 -340 -19 -258 -15 -423 -29 -602 -52 l-88 -11 0 -1533 c0 -975 4 -1535 10 -1539 17 -10 2894 -17 2909 -7 21 15 34 240 27 488 -3 122 -9 229 -12 238 -6 15 -102 16 -1049 16 -942 0 -1043 2 -1049 16 -3 9 -6 107 -6 220 l0 204 78 -6 c42 -2 129 -10 192 -16 66 -7 309 -12 565 -12 530 -1 652 10 860 79 96 31 249 106 292 142 124 105 202 211 244 329 51 145 53 154 53 459 0 272 -1 295 -22 369 -42 147 -97 243 -192 336 -77 75 -90 84 -230 161 -49 27 -240 90 -330 108 -30 7 -100 17 -155 23 -123 13 -970 19 -1155 7z m1134 -778 c66 -16 131 -38 145 -48 80 -60 96 -239 30 -331 -19 -26 -89 -59 -156 -72 -199 -40 -215 -42 -588 -42 -364 -1 -593 10 -705 35 l-55 12 -3 222 -2 222 32 5 c38 6 334 25 453 30 44 2 226 2 405 0 320 -4 327 -4 444 -33z"/>
 <path d="M5240 9297 c-3 -3 -79 -10 -170 -16 -153 -11 -202 -17 -335 -41 -27 -5 -93 -16 -145 -26 -112 -19 -251 -52 -259 -60 -8 -8 -13 -681 -6 -723 5 -28 10 -32 28 -28 12 3 58 12 102 22 44 9 96 20 115 25 159 37 324 65 530 91 133 17 652 23 735 9 294 -49 465 -133 549 -269 53 -85 89 -216 65 -232 -8 -5 -327 -9 -710 -9 l-696 0 -6 -107 c-9 -136 -9 -458 -1 -556 l7 -77 703 0 704 0 0 -45 c0 -49 -31 -140 -67 -198 -86 -137 -261 -223 -544 -267 -84 -14 -593 -7 -734 9 -223 25 -359 48 -545 91 -19 5 -64 15 -100 23 -36 8 -77 18 -92 22 -23 6 -28 3 -32 -17 -9 -43 -14 -389 -9 -563 l6 -173 56 -12 c31 -7 67 -16 81 -20 14 -5 66 -16 115 -24 50 -9 113 -20 140 -26 54 -10 136 -22 280 -42 129 -18 1015 -18 1105 0 193 39 320 71 380 95 14 5 34 13 45 17 11 4 67 31 125 59 127 62 232 138 322 232 69 71 158 188 158 207 0 6 3 12 8 14 7 3 38 64 77 153 10 21 24 62 32 90 8 27 19 66 24 85 11 38 24 102 39 190 27 159 20 908 -10 1025 -41 160 -76 259 -132 373 -28 56 -55 108 -62 115 -6 7 -20 25 -30 41 -41 63 -125 151 -211 219 -33 26 -64 51 -70 55 -37 30 -186 105 -285 145 -14 5 -34 13 -45 18 -37 15 -143 43 -240 64 -135 28 -273 37 -630 42 -198 2 -363 2 -365 0z"/>
 <path d="M9890 9285 c-208 -21 -391 -63 -525 -120 -16 -7 -55 -23 -85 -36 -30 -12 -67 -31 -82 -41 -14 -10 -31 -18 -37 -18 -6 0 -11 -4 -11 -9 0 -5 -10 -11 -23 -15 -31 -7 -203 -152 -252 -212 -55 -66 -98 -125 -111 -149 -6 -11 -25 -45 -42 -76 -31 -56 -76 -166 -92 -224 -49 -177 -66 -299 -80 -570 -21 -392 16 -708 111 -960 34 -89 106 -227 138 -264 12 -13 21 -28 21 -32 0 -5 39 -49 88 -98 137 -141 230 -202 437 -291 60 -26 218 -73 300 -89 28 -6 70 -15 95 -21 93 -22 599 -34 875 -22 143 6 283 16 310 21 28 5 82 15 120 21 39 6 90 15 115 20 25 4 113 21 195 36 83 15 164 35 180 44 l30 17 3 367 2 367 -47 -6 c-27 -4 -95 -18 -153 -31 -219 -52 -306 -67 -555 -95 -271 -30 -631 -34 -780 -7 -294 52 -417 112 -515 249 -84 119 -111 274 -112 634 -1 403 34 548 162 676 105 106 264 166 520 199 108 14 521 9 660 -9 148 -18 232 -30 330 -45 135 -22 174 -30 340 -71 36 -8 81 -18 101 -21 l37 -6 8 128 c10 149 10 509 0 576 -9 59 -18 63 -231 103 -372 72 -534 86 -985 90 -222 2 -368 -1 -460 -10z"/>
 <path d="M13970 9184 c-7 -16 -10 -438 -10 -1162 0 -909 -2 -1137 -12 -1144 -7 -4 -270 -8 -583 -8 -431 0 -574 -3 -583 -12 -9 -9 -12 -104 -12 -364 l0 -352 44 -11 c61 -15 3138 -16 3167 -1 18 10 19 25 19 364 0 284 -3 356 -13 365 -10 8 -184 12 -588 13 l-573 3 -13 25 c-10 20 -13 265 -13 1161 l0 1136 -52 7 c-29 3 -214 6 -411 6 l-357 0 -10 -26z"/>
 <path d="M7744 4993 l-261 -3 -11 -38 c-6 -20 -14 -100 -17 -177 -3 -77 -10 -237 -15 -355 -6 -118 -17 -393 -25 -610 -8 -217 -20 -480 -25 -585 -10 -212 -25 -517 -40 -825 -6 -113 -17 -367 -25 -565 -36 -847 -52 -1224 -61 -1395 l-6 -135 73 -37 c68 -34 120 -59 369 -176 185 -87 200 -92 251 -92 37 0 71 10 127 36 86 41 284 135 444 213 l106 52 7 92 c4 62 1 133 -9 219 -9 73 -16 204 -16 310 0 100 -5 212 -11 248 -6 36 -15 193 -20 350 -11 320 -24 696 -38 1060 -5 135 -14 380 -20 545 -6 165 -13 311 -17 325 -3 14 -10 147 -15 295 -18 533 -37 939 -55 1157 -5 66 -9 77 -27 83 -29 9 -341 12 -663 8z"/>
 <path d="M9375 4993 c-44 -2 -83 -7 -87 -11 -3 -4 -3 -38 2 -77 41 -332 45 -358 71 -535 5 -36 16 -110 24 -165 24 -168 34 -231 41 -250 6 -15 17 -17 88 -11 45 3 106 10 136 15 171 30 231 42 266 53 l39 13 -1 55 c-2 57 -20 153 -63 330 -5 19 -14 62 -20 95 -7 33 -21 98 -32 145 -11 47 -24 103 -29 125 -5 22 -16 70 -25 106 -8 36 -15 73 -15 81 0 9 -8 19 -17 22 -27 7 -287 13 -378 9z"/>
 <path d="M10020 4991 l-55 -6 -3 -45 c-2 -26 9 -88 24 -145 14 -55 30 -120 35 -145 4 -25 13 -61 18 -80 13 -44 39 -148 57 -225 7 -33 22 -94 33 -135 39 -149 48 -184 101 -400 5 -19 16 -62 24 -95 8 -33 29 -114 46 -180 18 -66 38 -147 45 -180 8 -33 23 -96 35 -140 12 -44 25 -98 30 -120 5 -22 16 -67 25 -100 25 -90 54 -202 71 -275 8 -36 19 -81 24 -100 35 -142 53 -213 66 -265 9 -33 29 -114 45 -180 28 -116 41 -167 59 -230 5 -16 16 -64 26 -105 9 -41 38 -160 64 -265 l48 -190 33 -3 c19 -2 52 2 74 8 45 14 146 60 518 238 l98 47 -6 35 c-7 37 -37 139 -62 205 -8 22 -30 85 -49 140 -18 55 -54 159 -79 230 -25 72 -61 175 -80 230 -19 55 -70 206 -115 335 -44 129 -99 289 -121 355 -22 66 -44 129 -49 140 -10 23 -53 146 -111 320 -22 66 -44 129 -49 140 -5 11 -18 47 -29 80 -11 33 -45 132 -76 220 -31 88 -69 201 -86 250 -16 50 -34 99 -39 110 -5 11 -21 56 -35 100 -15 44 -30 89 -35 100 -5 11 -25 70 -45 130 -20 61 -45 129 -56 151 -21 41 -21 41 -87 48 -77 7 -252 5 -332 -3z"/>
 <path d="M5466 4968 c-8 -13 -28 -66 -44 -118 -17 -52 -51 -153 -77 -225 -78 -220 -136 -388 -146 -425 -5 -19 -14 -44 -18 -55 -26 -61 -122 -335 -146 -415 -7 -25 -23 -70 -35 -100 -12 -30 -40 -109 -61 -175 -22 -66 -44 -129 -49 -140 -5 -11 -13 -36 -19 -55 -5 -19 -28 -87 -51 -150 -22 -63 -50 -142 -61 -175 -11 -33 -24 -69 -29 -80 -5 -11 -13 -36 -19 -55 -5 -19 -19 -62 -31 -95 -51 -136 -113 -313 -125 -355 -13 -43 -79 -231 -125 -355 -12 -33 -28 -80 -35 -105 -7 -25 -25 -76 -39 -115 -14 -38 -26 -71 -26 -71 0 -1 21 -16 48 -32 111 -72 590 -297 642 -303 39 -4 43 4 75 146 15 69 28 121 45 180 5 17 20 80 34 140 14 61 30 124 35 140 5 17 21 80 35 140 15 61 29 119 32 130 9 35 43 159 48 180 3 11 19 74 35 140 57 232 72 291 87 350 18 69 27 105 48 195 9 36 25 101 36 145 12 44 30 116 41 160 11 44 27 107 35 140 18 69 27 105 48 195 9 36 24 99 35 140 33 125 49 191 71 278 11 45 29 119 40 165 29 116 45 178 96 377 25 96 46 198 47 225 l2 50 -232 3 c-232 2 -232 2 -247 -20z"/>
 <path d="M6143 4978 c-6 -7 -15 -33 -21 -58 -21 -86 -51 -215 -62 -275 -7 -33 -16 -76 -20 -95 -4 -19 -13 -60 -20 -90 -7 -30 -16 -73 -21 -95 -15 -66 -39 -186 -51 -259 -11 -64 -11 -69 8 -80 25 -15 61 -23 169 -41 50 -8 110 -19 135 -25 25 -6 76 -15 113 -20 38 -5 72 -12 76 -15 20 -12 48 114 82 370 6 44 15 109 20 145 5 36 14 101 20 145 6 44 15 112 20 150 5 39 12 112 16 163 l6 92 -230 0 c-173 0 -233 -3 -240 -12z"/>
 <path d="M6813 4978 c-18 -24 -24 -52 -38 -193 -8 -77 -19 -176 -25 -220 -6 -44 -15 -114 -20 -155 -33 -251 -59 -503 -54 -511 2 -4 14 -9 26 -12 13 -3 59 -15 103 -26 87 -23 244 -50 341 -58 l60 -5 12 98 c17 151 32 356 42 609 5 127 13 284 16 351 l7 121 -33 6 c-18 4 -121 7 -230 7 -146 0 -200 -3 -207 -12z"/>
 <path d="M8610 4913 c0 -43 5 -139 10 -213 6 -74 15 -199 20 -277 6 -79 15 -205 20 -280 5 -76 12 -181 16 -234 3 -52 9 -101 13 -107 5 -9 22 -9 66 -1 33 5 98 16 145 24 47 8 111 19 143 25 31 5 83 14 114 20 31 5 60 13 65 18 7 7 3 60 -23 255 -18 141 -27 218 -43 357 -8 74 -20 172 -26 218 -5 45 -14 119 -20 164 -5 45 -14 86 -20 92 -7 7 -96 12 -245 14 l-235 3 0 -78z"/>
 <path d="M5884 3804 c-8 -19 -20 -58 -25 -87 -6 -29 -15 -68 -19 -87 -4 -19 -16 -71 -25 -115 -9 -44 -20 -96 -25 -115 -15 -66 -28 -125 -45 -205 -17 -81 -30 -141 -45 -205 -4 -19 -20 -93 -35 -165 -15 -71 -31 -146 -36 -165 -4 -19 -11 -48 -14 -65 -3 -16 -10 -48 -15 -70 -5 -22 -11 -59 -15 -83 l-5 -43 97 -45 c147 -68 150 -69 268 -117 125 -51 227 -87 249 -87 18 0 23 16 37 115 11 82 21 153 39 273 6 37 17 114 25 172 8 58 19 135 25 173 21 136 27 179 65 447 9 63 21 143 26 178 18 120 28 197 29 208 0 12 -8 15 -130 39 -71 14 -131 27 -210 45 -39 9 -193 40 -198 40 -2 0 -10 -16 -18 -36z"/>
 <path d="M9930 3824 c-87 -9 -437 -89 -453 -104 -5 -4 -4 -59 3 -121 11 -109 15 -143 40 -324 6 -44 15 -116 20 -160 5 -44 14 -110 20 -147 6 -38 15 -97 20 -133 5 -36 14 -95 20 -133 5 -37 17 -114 25 -172 20 -137 31 -203 61 -357 2 -13 11 -23 20 -23 17 0 122 34 174 57 19 8 44 19 55 23 181 72 360 153 369 168 5 8 -5 80 -23 172 -5 25 -16 83 -25 130 -9 47 -20 103 -25 125 -15 68 -32 147 -47 220 -7 39 -18 88 -23 110 -5 22 -14 65 -21 95 -7 30 -16 73 -22 95 -5 22 -15 69 -23 105 -22 104 -33 148 -62 265 -30 120 -27 116 -103 109z"/>
 <path d="M6646 3659 c-12 -38 -17 -75 -32 -209 -8 -80 -19 -176 -24 -215 -23 -182 -32 -260 -46 -385 -8 -74 -19 -166 -24 -205 -5 -38 -14 -110 -20 -160 -6 -49 -15 -124 -21 -165 -11 -93 -28 -251 -29 -267 0 -7 28 -27 63 -45 97 -50 340 -157 357 -158 9 0 20 -4 25 -9 8 -8 156 -61 169 -61 11 0 19 54 32 230 8 107 19 251 25 320 26 338 52 771 66 1090 l6 146 -94 17 c-52 10 -110 22 -129 27 -19 5 -57 14 -85 20 -27 6 -66 15 -85 20 -74 19 -149 24 -154 9z"/>
 <path d="M9180 3663 c-112 -19 -332 -67 -405 -89 -82 -24 -78 -17 -72 -155 7 -148 22 -356 36 -494 5 -55 15 -215 20 -355 6 -140 16 -300 21 -355 5 -55 15 -172 21 -260 6 -88 16 -165 21 -172 10 -12 48 -5 103 21 16 8 71 31 120 51 87 35 115 47 189 80 19 8 37 15 41 15 3 0 34 13 68 29 34 16 73 32 86 36 22 7 23 11 17 54 -4 25 -11 82 -16 126 -5 44 -14 118 -20 165 -6 47 -17 146 -25 220 -8 74 -19 169 -25 210 -12 92 -25 202 -44 385 -15 145 -29 247 -46 350 -6 33 -13 79 -16 103 -7 44 -10 46 -74 35z"/>
 </g>

</svg>