<?xml version="1.0" encoding="UTF-8"?>
<svg width="293px" height="286px" viewBox="0 0 293 286" version="1.1" xmlns="http://www.w3.org/2000/svg" xmlns:xlink="http://www.w3.org/1999/xlink">
    <!-- Generator: Sketch 51.2 (57519) - http://www.bohemiancoding.com/sketch -->
    <title>Виз</title>
    <desc>Created with Sketch.</desc>
    <defs></defs>
    <g id="Page-1" stroke="none" stroke-width="1" fill="none" fill-rule="evenodd">
        <path d="M1.4904436,18 L21.830699,0.828275808 L28.8786356,6.98490791 C29.9860036,8.79878518 30.5396876,10.3606413 30.5396876,11.6704763 C30.5396876,12.9803113 29.9860036,15.0901526 28.8786356,18 L25.2008961,22.7734201 L30.5396876,31.828283 L42.0722864,39.3168591 L54.970994,25.2287957 L60.5083341,23.6673671 L64.9698588,23.6673671 L67.5,20.7977089 L65.9588821,11.6704763 L71.4569226,2.73217394 L82.4294306,5.89129392 L90.9812062,11.6704763 L106.021086,12.3190787 L121.826045,16.5497273 L127.152142,19.0013125 L132.537864,17.3234742 L145.42394,30.9468975 L158.643504,42.2844394 L177.258496,50.4736077 L181.838232,53.1813753 L199.475987,54.9711851 L227.992306,56.9104057 L250.138385,62.9495837 L245.638381,74.0763558 L245.638381,77.7131744 L242.433155,80.6452315 L244.340483,85.5255225 L266.194327,87.3520783 L273.223915,84.8276943 L285.083528,93.7060243 L289.933313,96.4786175 L293.001955,110.219212 L259.91318,116.107973 L266.194327,162.226654 L263.333586,163.737801 C259.588467,162.835237 256.72797,162.331522 254.752094,162.226654 C252.776218,162.121786 249.738314,162.31245 245.638381,162.798644 C242.634951,165.245028 239.956881,167.886699 237.60417,170.723657 C235.251459,173.560615 232.399019,177.587774 229.046848,182.805133 L224.480632,188.522956 L207.760834,176.955232 L204.838137,180.8257 L193.085295,174.829508 L186.59606,181.214752 L195.004016,193.068119 L144.800021,243.378886 L117.542743,277.317084 L122.633415,285.72108 L119.884725,285.72108 L79.7555672,255.616901 L25.2008961,214.353016 L2.37657182,196.483997 L13.3841997,141.782376 L18.9486494,110.219212 L13.990557,100.961074 L6.52982714,65.0506817 L0.943150862,37.9303261 L1.4904436,18 Z" id="Виз" fill="#DF2151"></path>
    </g>
</svg>