<?xml version="1.0" encoding="UTF-8"?>
<svg width="315px" height="208px" viewBox="0 0 315 208" version="1.1" xmlns="http://www.w3.org/2000/svg" xmlns:xlink="http://www.w3.org/1999/xlink">
    <!-- Generator: Sketch 51.2 (57519) - http://www.bohemiancoding.com/sketch -->
    <title>ЖД</title>
    <desc>Created with Sketch.</desc>
    <defs></defs>
    <g id="Page-1" stroke="none" stroke-width="1" fill="none" fill-rule="evenodd">
        <path d="M98.7826666,52.0066835 L141.712662,32.2610355 L141.712662,19.8641343 L152.317541,17.0277415 L157.16538,12.092352 L161.732255,-0.0426325023 L165.196515,2.49850879 C164.742794,7.38526399 164.459998,11.790959 164.348125,15.7155938 C164.236252,19.6402286 164.236252,25.1553759 164.348125,32.2610355 L167.856709,47.7199808 L179.539123,66.3754086 C189.34862,74.8349936 196.706887,81.2333312 201.613923,85.5704213 C206.52096,89.9075115 211.883397,94.7523831 217.701235,100.105036 L216.156343,111.37709 L227.838194,130.814605 C231.957339,135.813287 235.205472,139.425906 237.582593,141.652461 C239.959715,143.879016 242.483273,145.50058 245.153267,146.517151 C250.44565,146.202499 254.380872,145.728851 256.958933,145.096207 C259.536994,144.463563 263.013587,143.315648 267.388712,141.652461 L270.085809,140.557514 L299.909239,128.450028 L299.129717,156.737763 L299.909239,164.245797 L308.288742,170.437287 L314.201831,193.700983 L300.670812,199.045915 L288.713492,207.758033 L279.148954,205.123115 L271.13489,198.164941 C268.439895,199.160253 266.033485,199.773462 263.91566,200.004567 C261.797835,200.235672 258.584868,200.235672 254.27676,200.004567 L242.516151,199.045915 L239.616385,193.104619 L243.113614,190.365667 L244.527598,182.95141 L247.536892,175.767933 L235.316556,171.65639 L211.153552,168.476392 L179.539123,166.295782 L168.853824,159.66427 L152.317541,152.764632 L130.510687,130.115672 L124.432755,132.074369 L113.54911,126.684014 L100.423604,124.498933 L93.2496509,126.008892 L83.1858229,122.611301 L77.8614047,117.889108 L70.4141407,115.998059 L65.4656025,120.15075 C64.7338698,122.992977 64.2828115,125.358653 64.1124274,127.247776 C63.9420433,129.136899 64.3931017,131.518082 65.4656025,134.391325 L61.587751,136.993747 L55.2281403,136.993747 L47.7849444,143.445949 L40.2750788,152.261369 L28.0126159,145.096207 L22.3911147,135.153997 L29.2687171,125.377361 C28.4617706,122.696549 27.4653883,120.647615 26.27957,119.230561 C25.0937518,117.813507 22.8808306,116.03284 19.6408064,113.88856 L0.853504442,130.814605 L0.128929342,109.715476 L16.4772924,105.501365 L48.9729105,91.8523922 L75.1912273,83.9825238 C75.1842027,74.250649 76.6821039,67.3496954 79.684931,63.2796633 C82.687758,59.2096311 89.0536699,55.4519712 98.7826666,52.0066835 Z" id="ЖД" fill="#DF2151"></path>
    </g>
</svg>