<?xml version="1.0" encoding="UTF-8"?>
<svg width="289px" height="252px" viewBox="0 0 289 252" version="1.1" xmlns="http://www.w3.org/2000/svg" xmlns:xlink="http://www.w3.org/1999/xlink">
    <!-- Generator: Sketch 51.2 (57519) - http://www.bohemiancoding.com/sketch -->
    <title>Орджоникидзевский</title>
    <desc>Created with Sketch.</desc>
    <defs></defs>
    <g id="Page-1" stroke="none" stroke-width="1" fill="none" fill-rule="evenodd">
        <path d="M1.76169996,83.2862979 L12.6780164,70.7254477 L21.0908046,66.2377632 L30.2096276,63.9338604 C35.9811526,57.4393283 40.4457923,52.7664212 43.6035469,49.9151392 C46.7613015,47.0638573 50.5003185,44.329305 54.8205979,41.7114825 L65.5597575,47.6250634 L88.0068221,40.1265771 C89.9797065,37.8387847 91.3376207,36.1184912 92.0805647,34.9656967 C92.9690335,33.5870974 94.0046087,31.7112516 95.1872903,29.3381593 C98.0747185,28.0612126 100.217018,27.2912286 101.61419,27.0282072 C103.011362,26.7651859 104.959224,26.7651859 107.457776,27.0282072 L117.334894,30.1583906 L131.209879,48.9593588 C138.506369,51.9370726 144.766992,55.0028361 149.991748,58.1566493 C151.098392,58.8246518 153.916252,50.1771029 155.263637,51.0544268 C156.013107,51.5424299 156.903737,52.3158602 157.935526,53.3747178 C158.571714,54.0275961 156.887784,57.8887403 157.935526,59.2044486 C158.716604,60.1852932 161.056356,61.7969839 164.685873,66.2377632 C165.611017,67.3696928 167.296691,70.1627212 169.742897,74.6168484 L173.715289,74.6168484 C176.67716,71.4926923 179.799441,68.6996639 183.082131,66.2377632 C186.364822,63.7758625 191.884264,60.3685933 199.640458,56.0159555 L213.479367,33.0030994 L224.708593,0.892162083 C230.229604,-0.275404528 234.33971,-0.275404528 237.038912,0.892162083 C239.738113,2.05972869 242.889212,5.28235264 246.492208,10.5600339 L243.25915,23.0694314 L248.679588,33.0030994 L253.335531,45.2461702 C260.279615,50.6182753 265.176419,53.3277912 268.025943,53.3747178 C277.246388,53.5265621 283.02014,45.8369411 283.352024,46.4160761 C287.071954,52.9073225 288.820478,61.0104464 288.597594,70.7254477 C277.976937,82.0123727 270.283249,89.8416061 265.516529,94.2131479 C262.14235,98.5391001 259.842015,109.161206 255.345183,113.618922 C247.678478,121.218937 236.878843,123.018066 237.038912,127.858088 C235.294133,137.042678 236.89274,152.423089 233.465018,162.772899 C233.335548,166.122069 233.945253,169.303326 235.294133,172.316671 C238.089475,178.170568 239.145529,182.406345 238.462296,185.024002 C237.335562,189.340832 229.506601,192.81799 229,197.015787 C228.769366,198.926867 231.083287,200.076685 230.660262,202.330918 C230.097593,205.329291 226.259595,206.815044 223.892926,213.294657 C222.944488,215.891349 221.987006,221.499768 221.020479,230.119915 C220.752109,232.79312 220.194425,234.867439 219.347427,236.342872 C218.50043,237.818304 216.784169,239.705097 214.198645,242.003248 C205.633213,234.194704 199.518278,229.30892 195.853841,227.345898 C192.189404,225.382876 187.932168,224.707088 183.082131,225.318533 L176.924852,231.633093 L168.517249,231.633093 C160.618207,235.955772 154.942563,239.41249 151.490318,242.003248 C148.038073,244.594006 144.520574,247.655218 140.937821,251.186885 L136.487297,246.976602 L136.487297,214.10926 L97.2630496,228.94031 L84.5855352,231.633093 L77.7490105,230.119915 L63.6533774,214.10926 L52.4173144,194.982373 L54.8205979,189.198419 L53.6340793,183.507796 L25.1308442,159.044601 C12.9446876,147.001741 5.63317203,136.084609 3.19629759,126.293205 C0.759423152,116.501801 0.281223941,102.166165 1.76169996,83.2862979 Z" id="Орджоникидзевский" fill="#DF2151"></path>
    </g>
</svg>