<?xml version="1.0" encoding="UTF-8"?>
<svg width="210px" height="312px" viewBox="0 0 210 312" version="1.1" xmlns="http://www.w3.org/2000/svg" xmlns:xlink="http://www.w3.org/1999/xlink">
    <!-- Generator: Sketch 51.2 (57519) - http://www.bohemiancoding.com/sketch -->
    <title>Кировский</title>
    <desc>Created with Sketch.</desc>
    <defs></defs>
    <g id="Page-1" stroke="none" stroke-width="1" fill="none" fill-rule="evenodd">
        <path d="M163.720746,0.282369304 L188.503727,15.4308995 C187.373971,32.4297391 186.110853,44.9543204 184.714371,53.0046435 C183.675041,58.9960877 183.002698,66.4998746 180.692127,74.0113349 C180.162797,75.7321427 178.95954,78.1523226 177.082358,81.2718746 L167.06816,85.7541549 L167.06816,107.802284 L195.187786,117.741859 C190.677434,136.161998 188.449414,150.865671 188.503727,161.852877 C188.585196,178.333687 188.041141,173.250458 189.642748,182.863669 C190.09035,185.550279 191.334334,190.397199 193.374701,197.404429 L183.249799,214.101046 L183.249799,230.545094 L195.187786,237.277535 L190.699765,282.99663 L209.815058,287.787796 C208.930922,294.097687 208.105836,298.68584 207.339801,301.552254 C206.573765,304.418668 205.275932,307.774228 203.446301,311.618934 C180.329321,301.474969 163.003742,293.975528 151.469562,289.120609 C142.204063,285.220615 130.764083,281.60806 117.626952,276.345372 C115.482512,275.486318 112.229351,273.833959 107.867467,271.388295 C102.35877,267.461591 97.959691,264.776542 94.6702304,263.333147 C91.3807698,261.889752 86.72601,260.602033 80.7059509,259.469989 L71.2001709,264.472168 L50.5182111,250.694035 L44.8395079,252.356234 L41.0739332,237.277535 L37.6052092,232.94942 L2.86794661,238.551861 L0.673548114,224.249729 C3.19293002,220.860908 6.2171982,218.110998 9.74635265,216 C13.2755071,213.889002 18.6581796,211.610218 25.8943703,209.163649 L22.4084256,189.33042 L15.1938075,180.594647 C20.1065838,176.499628 24.1895099,173.338142 27.4425857,171.110188 C30.6956615,168.882234 35.7344684,165.796464 42.5590064,161.852877 L50.5182111,161.852877 L55.4392071,155.608354 C60.570489,154.434882 65.4280694,154.978288 70.0119484,157.238572 C74.5958273,159.498856 81.1177939,164.566637 89.5778483,172.441916 L94.6702304,164.957508 L99.1213496,144.660142 L105.113893,133.497083 L105.113893,125.022091 C106.234754,123.639514 107.943484,121.846359 110.240083,119.642627 C112.536681,117.438895 113.58013,114.73172 113.370428,111.521102 L107.867467,96.2335863 L110.240083,83.5007928 L111.798453,57.218867 L134.203815,38.6639027 L141.494349,22.4899268 L163.720746,0.282369304 Z" id="Кировский" fill="#DF2151"></path>
    </g>
</svg>