<?xml version="1.0" encoding="UTF-8"?>
<svg width="314px" height="271px" viewBox="0 0 314 271" version="1.1" xmlns="http://www.w3.org/2000/svg" xmlns:xlink="http://www.w3.org/1999/xlink">
    <!-- Generator: Sketch 51.2 (57519) - http://www.bohemiancoding.com/sketch -->
    <title>Октяборьский</title>
    <desc>Created with Sketch.</desc>
    <defs></defs>
    <g id="Page-1" stroke="none" stroke-width="1" fill="none" fill-rule="evenodd">
        <path d="M5.84694896,5.66480596 C12.8959983,4.04171157 18.2414686,2.9383587 21.88336,2.35474734 C25.5252514,1.77113598 30.3915862,1.23805196 36.4823644,0.755495264 L42.769647,20.4878336 L48.7195231,18.1899946 L69.4329921,32.1461893 L78.3582634,27.5386242 C81.6180755,28.0836437 84.2056201,28.622214 86.1208972,29.1543352 C88.0361744,29.6864563 90.9766715,30.683741 94.9423885,32.1461893 L106.141163,39.074198 C111.003661,41.8610899 114.834091,43.7889035 117.632455,44.857639 C127.007158,48.4379734 137.334578,51.0582288 145.963448,54.7090805 C158.455915,59.9946097 177.18075,68.3216438 202.137954,79.6901827 L200.353865,92.2983618 C208.705466,93.8214546 214.935764,95.1252613 219.044761,96.209782 C223.153758,97.2943028 226.723221,98.5770265 229.753152,100.057953 C234.17347,108.969828 237.709252,116.628118 240.360498,123.032823 C243.011744,129.437528 247.032179,140.033047 252.421803,154.81938 C256.389121,155.388413 259.414796,156.301155 261.498828,157.557606 C263.58286,158.814056 266.50929,161.489804 270.278119,165.584849 L306.567707,160.366022 C309.986741,165.54162 312.442267,169.35583 313.934287,171.808654 C314.467585,172.685375 310.323615,179.514249 301.502376,192.295275 L300.868155,196.96433 L311.58236,212.480683 L304.573779,220.321829 L311.58236,233.971323 L295.590982,249.780645 C291.93621,249.413162 288.338215,250.416038 284.796996,252.789272 C281.255778,255.162506 274.759186,260.924765 265.307221,270.076048 L242.08803,269.55845 C240.880282,263.346472 239.203911,258.851949 237.058917,256.074879 C234.913923,253.297809 231.498204,251.199731 226.811759,249.780645 C227.95867,240.667878 228.152591,236.09493 227.393522,236.061802 C220.460107,235.759201 208.771375,229.63536 192.327326,217.69028 C184.962607,213.913104 179.953693,210.489661 177.300585,207.419952 C174.647478,204.350243 172.030851,198.950755 169.450705,191.221487 L149.352431,158.67163 C153.495958,153.008428 156.082095,149.008332 157.110843,146.67134 C158.139591,144.334349 158.331563,142.023457 157.686758,139.738664 L141.339287,142.36551 L125.224602,145.845394 C123.788685,135.061071 122.507282,127.115657 121.380393,122.009149 C120.253505,116.902642 118.335802,110.351272 115.627284,102.35504 L58.6130782,111.779103 L52.7658603,107.194867 L43.6914973,116.892344 L34.1521536,107.194867 C29.9972964,102.438113 27.0451571,98.1849213 25.2957357,94.4352913 C23.5463143,90.6856613 21.7905686,84.8481871 20.0284986,76.9228685 L34.1521536,72.2061279 C29.7040128,66.319676 26.2267453,62.2509667 23.7203511,60 C21.2139569,57.7490333 17.2184174,55.1064921 11.7337328,52.0723764 C10.0985636,47.4794923 8.58467103,44.1154852 7.19205517,41.9803551 C5.79943931,39.845225 3.48268574,37.336164 0.241794453,34.4531721 L10.339302,29.1543352 L5.84694896,5.66480596 Z" id="Октяборьский" fill="#DF2151"></path>
    </g>
</svg>