<?xml version="1.0" encoding="UTF-8"?>
<svg width="282px" height="230px" viewBox="0 0 282 230" version="1.1" xmlns="http://www.w3.org/2000/svg" xmlns:xlink="http://www.w3.org/1999/xlink">
    <!-- Generator: Sketch 51.2 (57519) - http://www.bohemiancoding.com/sketch -->
    <title>Чкаловский</title>
    <desc>Created with Sketch.</desc>
    <defs></defs>
    <g id="Page-1" stroke="none" stroke-width="1" fill="none" fill-rule="evenodd">
        <path d="M51.4990426,6.59752478 C57.6546961,5.0710691 62.7735315,3.92493223 66.8555491,3.15911416 C70.9375667,2.3932961 77.0654373,1.59994071 85.2391609,0.779048 C87.2793521,7.72705633 88.9001941,12.7613673 90.1016869,15.881981 C91.3031798,19.0025947 93.1977285,23.0987386 95.7853329,28.1704127 L109.25368,40.6773472 L118.099192,31.0443684 L123.021934,35.4624114 L180.520757,26.4609488 C183.608454,35.7502142 185.768062,43.0867704 186.999582,48.4706173 C188.231103,53.8544642 189.327496,60.7521959 190.288762,69.1638124 C198.285054,67.3784525 204.164473,66.1755062 207.927019,65.5549734 C211.689564,64.9344406 216.424079,64.386898 222.130564,63.9123457 L223.646374,67.7408592 L214.204479,82.9092448 C221.202428,92.7077855 226.289975,100.358243 229.46712,105.860618 C232.644266,111.362993 236.299976,118.854643 240.434252,128.335569 C241.536389,130.32448 243.009927,132.087356 244.854866,133.624196 C246.699804,135.161037 249.844247,137.244954 254.288193,139.87595 L282.020923,156.988582 C273.156103,167.475049 266.58445,175.465972 262.305964,180.96135 C258.027478,186.456728 253.365797,192.894137 248.320921,200.273578 L244.854866,196.499048 C245.816732,193.75331 245.273474,191.301222 243.225091,189.142784 C241.176708,186.984345 237.22252,184.697348 231.362526,182.281793 C226.553017,187.779084 222.011013,191.883796 217.736514,194.59593 C213.462015,197.308065 206.546469,200.473072 196.989878,204.090953 L205.538054,228.588983 L56.5374935,229.580493 L57.2598027,177.479881 L53.4360436,175.623881 L40.8007597,173.303125 L32.2823577,167.320812 L37.3004378,141.749593 L28.4964013,137.757634 L22.5798707,115.17977 L8.51756135,109.928603 C6.3337502,106.26471 4.79334315,103.176539 3.8963402,100.664089 C2.99933725,98.1516399 1.95547273,94.0014272 0.764746624,88.2134515 L3.22596452,82.9092448 C5.04960062,81.1539599 6.45036411,80.0042283 7.42825496,79.4600502 C8.40614582,78.915872 9.92693353,78.4398144 11.9906181,78.0318773 L14.1575458,69.1638124 L25.7387294,59.9572678 L47.9619646,61.294557 L47.1089559,28.973274 L53.4360436,21.5930826 L51.4990426,6.59752478 Z" id="Чкаловский" fill="#DF2151"></path>
    </g>
</svg>