<?xml version="1.0" encoding="UTF-8"?>
<svg width="210px" height="216px" viewBox="0 0 210 216" version="1.1" xmlns="http://www.w3.org/2000/svg" xmlns:xlink="http://www.w3.org/1999/xlink">
    <!-- Generator: Sketch 51.2 (57519) - http://www.bohemiancoding.com/sketch -->
    <title>Лененкий</title>
    <desc>Created with Sketch.</desc>
    <defs></defs>
    <g id="Page-1" stroke="none" stroke-width="1" fill="none" fill-rule="evenodd">
        <path d="M107.140234,78.4891627 L126.878966,53.4529281 C132.051554,52.2548863 135.783085,51.6558654 138.07356,51.6558654 C140.364034,51.6558654 143.455474,52.2548863 147.347879,53.4529281 L149.838784,51.6558654 C145.852268,32.7622137 144.77439,20.4490259 142.676371,5.94238587 C154.990689,2.56961875 170.293848,1.42548236 180.944681,0.0638936031 L185.341513,22.6588372 L174.588037,28.7156974 L182.426089,35.3835053 L186.846352,45.8899344 C192.124075,48.3397572 196.175291,50.8607551 199,53.4529281 C201.824709,56.0451011 205.30753,60.437921 209.448461,66.6313879 L201.711155,69.0319468 C191.419343,70.6020392 183.730867,71.8775124 178.645728,72.8583663 C173.560588,73.8392202 167.938687,75.131137 161.780025,76.7341167 L164.02905,92.1809068 L156.762444,99.8637047 L158.147289,131.675973 L136.13171,130.168484 C133.399562,132.883678 131.374058,134.736574 130.055196,135.727171 C128.736335,136.717768 126.977314,137.70743 124.778135,138.696157 L122.053867,147.739385 C119.660737,148.434197 117.935784,149.064257 116.879008,149.629566 C115.822231,150.194875 114.730177,151.071735 113.602846,152.260148 C112.248424,156.944639 111.757851,160.751498 112.131128,163.680723 C112.504406,166.609948 114.087032,171.372779 116.879008,177.969216 L132.894726,185.836547 L138.07356,207.697119 L147.347879,211.797715 L147.347879,215.561043 L120.745674,211.797715 L50.2008843,198.631179 L28.0053147,193.768038 C23.234739,190.59922 19.4723578,187.95539 16.7181711,185.836547 C13.9639845,183.717704 9.97883942,180.401229 4.76273601,175.887122 C4.33858395,173.62822 3.8932455,171.975565 3.42672067,170.929159 C2.96019585,169.882753 2.02371704,168.436019 0.617284268,166.588955 C13.3146056,149.758426 22.4439491,138.455763 28.0053147,132.680965 C37.7969956,122.513502 46.7590296,113.72332 54.8914167,106.310419 L77.3158066,82.7487407 L70.3626219,71.2447005 L75.8137491,64.6551302 L88.0158529,71.2447005 L92.2572616,67.4456021 L107.140234,78.4891627 Z" id="Лененкий" fill="#DF2151"></path>
    </g>
</svg>