<?xml version="1.0" encoding="utf-8"?>
<!-- Generator: Adobe Illustrator 22.1.0, SVG Export Plug-In . SVG Version: 6.00 Build 0)  -->
<svg version="1.1" id="Слой_1" xmlns="http://www.w3.org/2000/svg" xmlns:xlink="http://www.w3.org/1999/xlink" x="0px" y="0px"
	 viewBox="0 0 20 24" style="enable-background:new 0 0 20 24;" xml:space="preserve">
<style type="text/css">
	.st0{fill:#DF2151;}
</style>
<path id="phone-call-out.svg" class="st0" d="M11.5,24H2.5C1.1,24,0,22.9,0,21.5V2.5C0,1.1,1.1,0,2.5,0h9.1C12.9,0,14,1.1,14,2.5V8
	c0,0.6-0.4,1-1,1s-1-0.4-1-1V2.5C12,2.2,11.8,2,11.5,2H2.5C2.2,2,2,2.2,2,2.5v19.1C2,21.8,2.2,22,2.5,22h9.1c0.3,0,0.5-0.2,0.5-0.5
	V16c0-0.6,0.4-1,1-1s1,0.4,1,1v5.5C14,22.9,12.9,24,11.5,24z M8,5H6C5.4,5,5,4.6,5,4s0.4-1,1-1h2c0.6,0,1,0.4,1,1S8.6,5,8,5z M8,21
	H6v-2h2V21z M16,16c-0.6,0-1-0.4-1-1c0-0.3,0.1-0.5,0.3-0.7l2.3-2.3l-2.3-2.3c-0.4-0.4-0.4-1,0-1.4c0.4-0.4,1-0.4,1.4,0l3,3
	c0.4,0.4,0.4,1,0,1.4l-3,3C16.5,15.9,16.3,16,16,16z M19,13H9c-0.6,0-1-0.4-1-1s0.4-1,1-1h10c0.6,0,1,0.4,1,1S19.6,13,19,13z"/>
</svg>
