<?xml version="1.0" encoding="utf-8"?>
<!-- Generator: Adobe Illustrator 22.1.0, SVG Export Plug-In . SVG Version: 6.00 Build 0)  -->
<svg version="1.1" id="Слой_1" xmlns="http://www.w3.org/2000/svg" xmlns:xlink="http://www.w3.org/1999/xlink" x="0px" y="0px"
	 viewBox="0 0 59.9 59.9" style="enable-background:new 0 0 59.9 59.9;" xml:space="preserve">
<style type="text/css">
	.st0{fill:#DF2151;}
</style>
<path id="check-circle-2.svg" class="st0" d="M28,38.9c-0.2,0-0.5-0.1-0.6-0.2l-14-12c-0.4-0.3-0.5-1-0.1-1.4c0.3-0.4,1-0.5,1.4-0.1
	c0,0,0,0,0,0l13.3,11.3L58.1,0.3c0.3-0.4,1-0.5,1.4-0.2s0.5,1,0.2,1.4c0,0-0.1,0.1-0.1,0.1L28.8,38.6C28.6,38.8,28.4,38.9,28,38.9
	C28.1,38.9,28,38.9,28,38.9z M27.9,59.9C12.5,59.9,0,47.4,0,31.9S12.5,4,27.9,4c3.6-0.1,7.1,0.6,10.4,2.1c0.5,0.2,0.8,0.8,0.6,1.3
	c-0.2,0.5-0.8,0.8-1.3,0.6c0,0-0.1,0-0.1,0c-3-1.4-6.3-2-9.6-1.9C13.6,6,2,17.6,2,31.9s11.6,25.9,25.9,25.9
	c14.3,0,25.9-11.6,25.9-25.9c0,0,0,0,0,0c0-2.6-0.4-5.2-1.3-7.7c-0.2-0.5,0.1-1.1,0.6-1.3c0.5-0.2,1.1,0.1,1.3,0.6
	c0.9,2.7,1.4,5.5,1.4,8.3C55.9,47.4,43.4,59.9,27.9,59.9z"/>
</svg>
